HIERARCHY
ROOT Hips
{
	OFFSET 0.000000 0.000000 0.000000
	CHANNELS 6 Xposition Yposition Zposition Zrotation Yrotation Xrotation 
	JOINT LHipJoint
	{
		OFFSET 0.000000 0.000000 0.000000
		CHANNELS 3 Zrotation Yrotation Xrotation
		JOINT LeftUpLeg
		{
			OFFSET 1.363060 -1.794630 0.839290
			CHANNELS 3 Zrotation Yrotation Xrotation
			JOINT LeftLeg
			{
				OFFSET 2.448110 -6.726130 0.000000
				CHANNELS 3 Zrotation Yrotation Xrotation
				JOINT LeftFoot
				{
					OFFSET 2.562200 -7.039590 0.000000
					CHANNELS 3 Zrotation Yrotation Xrotation
					JOINT LeftToeBase
					{
						OFFSET 0.157640 -0.433110 2.322550
						CHANNELS 3 Zrotation Yrotation Xrotation
						End Site
						{
							OFFSET 0.000000 0.000000 0.000000
						}
					}
				}
			}
		}
	}
	JOINT RHipJoint
	{
		OFFSET 0.000000 0.000000 0.000000
		CHANNELS 3 Zrotation Yrotation Xrotation
		JOINT RightUpLeg
		{
			OFFSET -1.305520 -1.794630 0.839290
			CHANNELS 3 Zrotation Yrotation Xrotation
			JOINT RightLeg
			{
				OFFSET -2.542530 -6.985550 0.000000
				CHANNELS 3 Zrotation Yrotation Xrotation
				JOINT RightFoot
				{
					OFFSET -2.568260 -7.056230 0.000000
					CHANNELS 3 Zrotation Yrotation Xrotation
					JOINT RightToeBase
					{
						OFFSET -0.164730 -0.452590 2.363150
						CHANNELS 3 Zrotation Yrotation Xrotation
						End Site
						{
							OFFSET 0.000000 0.000000 0.000000
						}
					}
				}
			}
		}
	}
	JOINT LowerBack
	{
		OFFSET 0.000000 0.000000 0.000000
		CHANNELS 3 Zrotation Yrotation Xrotation
		JOINT Spine
		{
			OFFSET 0.028270 2.035590 -0.193380
			CHANNELS 3 Zrotation Yrotation Xrotation
			JOINT Spine1
			{
				OFFSET 0.056720 2.048850 -0.042750
				CHANNELS 3 Zrotation Yrotation Xrotation
				JOINT Neck
				{
					OFFSET 0.000000 0.000000 0.000000
					CHANNELS 3 Zrotation Yrotation Xrotation
					JOINT Neck1
					{
						OFFSET -0.054170 1.746240 0.172020
						CHANNELS 3 Zrotation Yrotation Xrotation
						JOINT Head
						{
							OFFSET 0.104070 1.761360 -0.123970
							CHANNELS 3 Zrotation Yrotation Xrotation
							End Site
							{
								OFFSET 0.000000 0.000000 0.000000
							}
						}
					}
				}
				JOINT LeftShoulder
				{
					OFFSET 0.000000 0.000000 0.000000
					CHANNELS 3 Zrotation Yrotation Xrotation
					JOINT LeftArm
					{
						OFFSET 3.362410 1.200890 -0.311210
						CHANNELS 3 Zrotation Yrotation Xrotation
						JOINT LeftForeArm
						{
							OFFSET 4.983000 -0.000000 -0.000000
							CHANNELS 3 Zrotation Yrotation Xrotation
							JOINT LeftHand
							{
								OFFSET 3.483560 -0.000000 -0.000000
								CHANNELS 3 Zrotation Yrotation Xrotation
								JOINT LeftFingerBase
								{
									OFFSET 0.000000 0.000000 0.000000
									CHANNELS 3 Zrotation Yrotation Xrotation
									JOINT LeftHandIndex1
									{
										OFFSET 0.715260 -0.000000 -0.000000
										CHANNELS 3 Zrotation Yrotation Xrotation
										End Site
										{
											OFFSET 0.000000 0.000000 0.000000
										}
									}
								}
								JOINT LThumb
								{
									OFFSET 0.000000 0.000000 0.000000
									CHANNELS 3 Zrotation Yrotation Xrotation
									End Site
									{
										OFFSET 0.000000 0.000000 0.000000
									}
								}
							}
						}
					}
				}
				JOINT RightShoulder
				{
					OFFSET 0.000000 0.000000 0.000000
					CHANNELS 3 Zrotation Yrotation Xrotation
					JOINT RightArm
					{
						OFFSET -3.136600 1.374050 -0.404650
						CHANNELS 3 Zrotation Yrotation Xrotation
						JOINT RightForeArm
						{
							OFFSET -5.241900 -0.000000 -0.000000
							CHANNELS 3 Zrotation Yrotation Xrotation
							JOINT RightHand
							{
								OFFSET -3.444170 -0.000000 -0.000000
								CHANNELS 3 Zrotation Yrotation Xrotation
								JOINT RightFingerBase
								{
									OFFSET 0.000000 0.000000 0.000000
									CHANNELS 3 Zrotation Yrotation Xrotation
									JOINT RightHandIndex1
									{
										OFFSET -0.622530 -0.000000 -0.000000
										CHANNELS 3 Zrotation Yrotation Xrotation
										End Site
										{
											OFFSET 0.000000 0.000000 0.000000
										}
									}
								}
								JOINT RThumb
								{
									OFFSET 0.000000 0.000000 0.000000
									CHANNELS 3 Zrotation Yrotation Xrotation
									End Site
									{
										OFFSET 0.000000 0.000000 0.000000
									}
								}
							}
						}
					}
				}
			}
		}
	}
}
MOTION
Frames: 12
Frame Time: 0.008333
9.215185 18.044177 -15.205381 -2.562042 -9.966976 10.498639 -3.155813 -4.430409 -6.021165 -6.080845 1.133838 -34.719047 -2.130580 10.310482 19.709525 -0.933910 13.906452 29.472813 0.249100 -3.211700 -8.868600 5.020215 -2.271269 7.466753 11.515920 7.640674 1.356483 1.731660 -7.479579 24.133019 -3.354176 -4.946690 44.061301 -0.040800 -1.304000 3.585800 1.426011 6.168318 -0.172984 0.293293 7.778996 -4.052556 -4.327079 4.705276 -2.297715 -2.574265 -2.771353 -10.136010 7.118207 -4.031791 10.097006 2.347700 -1.662800 6.099500 1.561965 -6.973113 0.218521 -86.881580 22.914048 -13.482795 -1.901085 -1.910922 -0.275937 -1.710006 2.450245 25.574718 22.778001 -7.323239 -4.132000 -7.125000 0.000000 0.000000 -1.088000 20.305400 0.642900 -4.630850 9.096803 0.257321 82.902790 -0.533611 26.084462 -52.966282 49.377198 -32.660924 2.100522 1.598549 -13.037633 -28.388492 -26.792062 15.307200 7.125000 0.000000 0.000000 -0.670500 -61.028500 0.261800
9.219765 18.050787 -15.067666 -2.331611 -9.884705 10.334233 -3.166343 -4.402706 -5.889273 -6.357057 0.947617 -34.635127 -2.083928 10.476280 20.325362 -0.765928 13.250913 29.197883 0.184452 -2.707815 -7.469631 4.958722 -2.229745 7.263474 11.435306 7.470082 1.046173 1.196718 -8.054220 25.367722 -3.063796 -6.450543 44.524195 -0.026653 -0.998222 2.744395 1.123202 6.109874 -0.028563 0.279396 7.707559 -4.040292 -4.346605 4.659131 -2.261685 -2.357915 -2.775205 -10.277237 7.053006 -4.068008 10.030929 2.229284 -1.670321 6.085800 1.553746 -7.008959 0.224991 -86.720552 22.571707 -13.805902 -1.890891 -1.905367 -0.275010 -1.680246 2.428654 25.945300 22.503550 -7.098755 -3.965635 -7.125000 0.000000 0.000000 -1.295285 20.596718 0.755317 -4.626042 9.106540 0.260728 83.221323 -0.954332 25.947969 -52.629517 49.341680 -32.410630 2.124326 1.676750 -13.380773 -29.015837 -27.777084 16.208059 7.125000 0.000000 0.000000 -1.148642 -62.286444 0.500065
9.224346 18.057397 -14.929951 -2.101179 -9.802434 10.169827 -3.176874 -4.375004 -5.757381 -6.633269 0.761397 -34.551207 -2.037276 10.642078 20.941200 -0.597945 12.595373 28.922952 0.119805 -2.203930 -6.070662 4.897229 -2.188222 7.060195 11.354691 7.299490 0.735863 0.661776 -8.628861 26.602424 -2.773416 -7.954396 44.987088 -0.012505 -0.692444 1.902990 0.820394 6.051429 0.115859 0.265500 7.636122 -4.028028 -4.366131 4.612986 -2.225654 -2.141564 -2.779057 -10.418464 6.987805 -4.104224 9.964852 2.110867 -1.677843 6.072101 1.545527 -7.044805 0.231460 -86.559524 22.229366 -14.129009 -1.880697 -1.899811 -0.274084 -1.650485 2.407063 26.315882 22.229098 -6.874271 -3.799270 -7.125000 0.000000 0.000000 -1.502569 20.888035 0.867734 -4.621234 9.116276 0.264136 83.539856 -1.375053 25.811477 -52.292752 49.306162 -32.160337 2.148129 1.754952 -13.723912 -29.643183 -28.762107 17.108919 7.125000 0.000000 0.000000 -1.626785 -63.544388 0.738331
9.231399 18.072981 -14.790401 -1.986696 -9.579435 9.977103 -3.213635 -4.351470 -5.622347 -6.785067 0.481729 -34.305399 -1.984271 10.761468 21.443359 -0.507998 12.122907 28.584906 0.069155 -1.442449 -3.971022 4.840021 -2.078479 6.845885 11.473976 7.025344 0.334720 0.205170 -9.137742 27.914190 -2.736434 -8.411872 45.508521 -0.073531 0.571877 -1.581766 0.736237 5.964329 0.292972 0.255533 7.532164 -4.006647 -4.439670 4.541916 -2.160346 -2.034433 -2.775091 -10.487974 6.974772 -4.117084 9.891987 2.077059 -1.679428 6.030062 1.529599 -7.076408 0.240503 -86.482865 21.967077 -14.460620 -1.766397 -2.023982 -0.280006 -1.648926 2.371068 26.651746 22.131222 -6.480554 -3.582710 -7.125000 0.000000 0.000000 -1.565582 21.373682 0.887344 -4.632472 9.103914 0.274072 83.874572 -1.773226 25.647290 -51.854927 49.241848 -31.824071 2.164555 1.829836 -14.013498 -30.108138 -29.713136 17.909526 7.125000 0.000000 0.000000 -1.893648 -64.725204 0.909932
9.239206 18.091301 -14.650292 -1.907563 -9.313532 9.775747 -3.258395 -4.329206 -5.486356 -6.898934 0.173572 -34.010234 -1.929329 10.866708 21.910861 -0.441843 11.706255 28.227617 0.022774 -0.602431 -1.657762 4.784121 -1.947938 6.628212 11.654206 6.719627 -0.094117 -0.227552 -9.626574 29.249451 -2.776708 -8.550332 46.047802 -0.157474 2.128436 -5.872421 0.718742 5.868492 0.480051 0.246764 7.418292 -3.982486 -4.529678 4.463247 -2.086112 -1.960599 -2.768740 -10.535620 6.977643 -4.122823 9.817052 2.069045 -1.679205 5.979382 1.511320 -7.106718 0.250330 -86.431928 21.729194 -14.794825 -1.620358 -2.187703 -0.288016 -1.655964 2.330682 26.977025 22.087180 -6.035240 -3.350847 -7.125000 0.000000 0.000000 -1.584609 21.918577 0.878659 -4.648603 9.084814 0.286000 84.214221 -2.164524 25.474659 -51.386290 49.168755 -31.461594 2.178731 1.903710 -14.286757 -30.523584 -30.653802 18.679567 7.125000 0.000000 0.000000 -2.096097 -65.882505 1.061210
9.247789 18.106932 -14.512345 -1.865176 -9.080667 9.572589 -3.305146 -4.286451 -5.334494 -7.003151 -0.088514 -33.685093 -1.882309 10.947931 22.321981 -0.371861 11.300723 27.882542 0.006013 0.066824 0.183756 4.717721 -1.856770 6.404407 11.828012 6.451749 -0.435779 -0.787429 -10.161680 30.588676 -2.625479 -9.537046 46.355902 -0.150909 2.280577 -6.289604 0.758913 5.787473 0.697242 0.239630 7.322116 -3.964105 -4.609054 4.395253 -2.064437 -1.974605 -2.762428 -10.523687 6.995595 -4.114364 9.765115 2.100096 -1.676500 5.938147 1.493647 -7.135570 0.254153 -86.440302 21.555624 -15.128158 -1.435059 -2.404027 -0.302392 -1.650456 2.314616 27.239071 22.146036 -5.837884 -3.259719 -7.125000 0.000000 0.000000 -1.538718 22.154311 0.845098 -4.669083 9.072175 0.297511 84.532952 -2.607957 25.305345 -50.865930 49.073032 -31.048212 2.191680 1.963238 -14.542181 -30.887121 -31.392496 19.314431 7.125000 0.000000 0.000000 -2.310949 -66.798785 1.217162
9.257053 18.120204 -14.376295 -1.855024 -8.876784 9.367852 -3.353644 -4.225720 -5.168710 -7.098903 -0.310185 -33.333657 -1.842239 11.008086 22.683643 -0.298524 10.904946 27.548181 0.015236 0.586289 1.611468 4.642110 -1.800139 6.175225 11.996184 6.217063 -0.700973 -1.458843 -10.737376 31.931378 -2.306263 -11.267842 46.461213 -0.064951 1.200772 -3.309005 0.849669 5.719452 0.940844 0.233930 7.241465 -3.950795 -4.679106 4.336624 -2.088867 -2.065661 -2.756148 -10.459492 7.026776 -4.093450 9.733352 2.165415 -1.671621 5.905196 1.476505 -7.163144 0.252708 -86.500704 21.438469 -15.460728 -1.215321 -2.666493 -0.322351 -1.633943 2.319882 27.445650 22.295153 -5.858035 -3.292043 -7.125000 0.000000 0.000000 -1.435882 22.118854 0.789718 -4.693380 9.065204 0.308656 84.833332 -3.097122 25.138939 -50.300198 48.957460 -30.590178 2.203552 2.010183 -14.781961 -31.205123 -31.954020 19.830717 7.125000 0.000000 0.000000 -2.536678 -67.503641 1.377214
9.266178 18.135718 -14.240245 -1.823134 -8.741525 9.190656 -3.403787 -4.165720 -4.998581 -7.223093 -0.475064 -33.003807 -1.808145 11.054137 23.013213 -0.231421 10.522449 27.187844 0.022410 0.965061 2.652568 4.562174 -1.741653 5.934276 12.123610 6.022332 -1.007720 -2.166398 -11.316651 33.287851 -1.938297 -13.173634 46.456856 -0.021021 0.077373 -0.210568 0.900429 5.673803 1.156012 0.227691 7.188836 -3.942158 -4.724996 4.292161 -2.129777 -2.147742 -2.744719 -10.389755 7.036068 -4.064783 9.704652 2.208683 -1.663915 5.872272 1.463232 -7.193249 0.250194 -86.558804 21.307114 -15.785611 -1.021089 -2.897292 -0.340990 -1.603720 2.333300 27.652302 22.392234 -5.991269 -3.372688 -7.125000 0.000000 0.000000 -1.381340 21.949156 0.765467 -4.710166 9.061049 0.318339 85.103555 -3.630668 24.993554 -49.746256 48.841388 -30.140180 2.211570 2.056586 -15.044474 -31.458464 -32.455521 20.273015 7.125000 0.000000 0.000000 -2.690013 -68.127253 1.494501
9.274973 18.156484 -14.104196 -1.740298 -8.767105 9.078008 -3.457784 -4.107433 -4.818268 -7.413934 -0.506836 -32.724549 -1.788055 11.067136 23.267570 -0.178929 10.171079 26.766625 0.024782 1.014084 2.787549 4.472102 -1.678817 5.665750 12.155535 5.921243 -1.411860 -2.958655 -11.904311 34.676599 -1.456074 -15.489573 46.195464 -0.075596 -1.148203 3.164051 0.857446 5.680587 1.304536 0.220189 7.201882 -3.944477 -4.714261 4.280899 -2.209312 -2.208786 -2.721221 -10.307027 6.994056 -4.017946 9.683132 2.200266 -1.649589 5.839411 1.459026 -7.229287 0.245173 -86.611509 21.142479 -16.092476 -0.886636 -3.053870 -0.356537 -1.541366 2.365821 27.859128 22.367354 -6.389544 -3.566587 -7.125000 0.000000 0.000000 -1.439988 21.464836 0.814177 -4.709350 9.063495 0.324591 85.303097 -4.268233 24.897439 -49.219945 48.724145 -29.709015 2.210553 2.101719 -15.360267 -31.560253 -32.816344 20.541903 7.125000 0.000000 0.000000 -2.673672 -68.560446 1.511559
9.283647 18.177387 -13.968095 -1.652720 -8.796040 8.963927 -3.513022 -4.049376 -4.637050 -7.611938 -0.530434 -32.444231 -1.768805 11.077432 23.516131 -0.128849 9.827382 26.346523 0.026218 1.032126 2.837338 4.380919 -1.613726 5.396720 12.187744 5.830182 -1.818763 -3.746902 -12.487322 36.072499 -0.972771 -17.762248 45.906103 -0.127678 -2.302700 6.343118 0.807674 5.686696 1.452534 0.211976 7.214133 -3.946668 -4.707364 4.268978 -2.287632 -2.256779 -2.695190 -10.227982 6.951440 -3.969941 9.660021 2.187676 -1.633968 5.805850 1.455011 -7.265787 0.240340 -86.658572 20.975962 -16.404058 -0.750506 -3.212665 -0.372337 -1.478916 2.397574 28.064008 22.339041 -6.784924 -3.758036 -7.125000 0.000000 0.000000 -1.501390 20.984587 0.864562 -4.708309 9.065948 0.330423 85.508549 -4.908460 24.813704 -48.697637 48.606145 -29.272536 2.206964 2.139499 -15.667310 -31.559308 -33.081503 20.691700 7.125000 0.000000 0.000000 -2.555617 -68.860101 1.470490
9.290569 18.200235 -13.831265 -1.497404 -8.872908 8.829382 -3.585980 -3.994613 -4.442894 -7.912265 -0.437271 -32.148766 -1.761549 11.049119 23.681908 -0.113222 9.593295 25.942378 0.014264 0.607573 1.670098 4.273876 -1.516436 5.120484 12.224019 5.882375 -2.265152 -4.477843 -13.003918 37.570554 -0.474067 -19.416873 45.217174 -0.144153 -2.441800 6.728586 0.660907 5.683145 1.593003 0.193592 7.215024 -3.947031 -4.755297 4.247655 -2.348588 -2.118321 -2.632975 -10.201539 6.900189 -3.905259 9.614199 2.115462 -1.599854 5.762289 1.453721 -7.308872 0.238199 -86.625032 20.782572 -16.783023 -0.590404 -3.403144 -0.391766 -1.415075 2.418349 28.241089 22.261688 -7.138951 -3.914507 -7.125000 0.000000 0.000000 -1.602122 20.562496 0.938880 -4.704064 9.068498 0.330238 85.798448 -5.586730 24.906841 -48.232501 48.477318 -28.760136 2.166634 2.072255 -15.849355 -30.090727 -31.980052 19.140200 7.125000 0.000000 0.000000 -0.984508 -67.252056 0.599044
9.297491 18.223083 -13.694434 -1.342088 -8.949777 8.694837 -3.658939 -3.939850 -4.248738 -8.212593 -0.344107 -31.853302 -1.754292 11.020807 23.847684 -0.097595 9.359207 25.538234 0.002311 0.183020 0.502858 4.166832 -1.419146 4.844249 12.260295 5.934569 -2.711541 -5.208785 -13.520514 39.068610 0.024638 -21.071498 44.528246 -0.160628 -2.580900 7.114055 0.514139 5.679594 1.733473 0.175209 7.215914 -3.947394 -4.803230 4.226332 -2.409545 -1.979862 -2.570761 -10.175096 6.848938 -3.840577 9.568376 2.043248 -1.565739 5.718728 1.452431 -7.351957 0.236058 -86.591492 20.589181 -17.161989 -0.430302 -3.593622 -0.411196 -1.351235 2.439123 28.418170 22.184334 -7.492979 -4.070978 -7.125000 0.000000 0.000000 -1.702854 20.140406 1.013198 -4.699818 9.071048 0.330054 86.088346 -6.265000 24.999977 -47.767366 48.348492 -28.247736 2.126303 2.005012 -16.031401 -28.622147 -30.878601 17.588700 7.125000 0.000000 0.000000 0.586601 -65.644012 -0.272402
